<svg width="500" height="162" viewBox="0 0 500 162" fill="none" xmlns="http://www.w3.org/2000/svg">
<path d="M27.7462 127.778L0 30.8081H22.3958L38.4469 98.185H39.2519L56.96 30.8081H76.1361L93.7972 98.3273H94.6494L110.701 30.8081H133.097L105.351 127.778H85.3694L66.9033 64.3784H66.1461L47.7273 127.778H27.7462Z" fill="white"/>
<path d="M250.363 127.778V30.8081H288.621C295.976 30.8081 302.241 32.2128 307.418 35.0222C312.594 37.7999 316.541 41.6667 319.255 46.6225C322.001 51.5468 323.374 57.2284 323.374 63.6678C323.374 70.1073 321.986 75.7889 319.208 80.7134C316.43 85.6378 312.406 89.4728 307.134 92.2189C301.894 94.9656 295.549 96.3384 288.1 96.3384H263.716V79.9084H284.786C288.731 79.9084 291.982 79.23 294.539 77.8723C297.128 76.4834 299.053 74.5739 300.316 72.1434C301.61 69.6812 302.257 66.8562 302.257 63.6678C302.257 60.4484 301.61 57.6389 300.316 55.2399C299.053 52.8094 297.128 50.9312 294.539 49.6055C291.951 48.2482 288.668 47.5695 284.691 47.5695H270.865V127.778H250.363Z" fill="white"/>
<path d="M336.691 127.778V30.8081H402.032V47.7115H357.193V70.8178H398.671V87.7212H357.193V110.874H402.222V127.778H336.691Z" fill="white"/>
<path d="M499.439 30.8081V127.778H481.731L439.544 66.7456H438.834V127.778H418.332V30.8081H436.324L478.18 91.7928H479.033V30.8081H499.439Z" fill="white"/>
<path d="M166.539 116.205L162.517 113.855L149.183 117.494L152.811 104.156L150.467 100.133C146.539 93.4055 144.444 85.7556 144.444 77.7778C144.444 68.9877 147.051 60.3945 151.935 53.0858C156.819 45.777 163.76 40.0805 171.881 36.7166C180.002 33.3527 188.938 32.4725 197.559 34.1874C206.181 35.9023 214.1 40.1352 220.316 46.3509C226.531 52.5665 230.764 60.4859 232.479 69.1068C234.194 77.7284 233.314 86.6648 229.95 94.7858C226.586 102.907 220.889 109.848 213.581 114.732C206.272 119.615 197.679 122.222 188.889 122.222C181.036 122.238 173.322 120.162 166.539 116.205Z" fill="#127294"/>
<path d="M165.154 110.248L168.774 112.363C174.878 115.923 181.822 117.792 188.889 117.778C196.8 117.778 204.534 115.432 211.112 111.037C217.689 106.641 222.817 100.394 225.844 93.085C228.872 85.7761 229.664 77.7334 228.121 69.9739C226.577 62.215 222.767 55.0876 217.173 49.4935C211.579 43.8994 204.452 40.0898 196.692 38.5464C188.933 37.003 180.891 37.7952 173.582 40.8227C166.273 43.8502 160.026 48.977 155.63 55.555C151.235 62.1328 148.889 69.8667 148.889 77.7778C148.889 84.9578 150.774 91.8428 154.309 97.8978L156.419 101.518L153.154 113.523L165.154 110.248ZM138.909 127.778L145.669 102.938C141.215 95.3022 138.875 86.6178 138.889 77.7778C138.889 50.1628 161.274 27.7778 188.889 27.7778C216.504 27.7778 238.889 50.1628 238.889 77.7778C238.889 105.393 216.504 127.778 188.889 127.778C180.053 127.792 171.372 125.453 163.739 121.003L138.909 127.778Z" fill="white"/>
</svg>
